<svg width="140" height="170" viewBox="0 0 140 170" fill="none" xmlns="http://www.w3.org/2000/svg">
<g id="LogoSura_grupo">
<path id="part10" fill-rule="evenodd" clip-rule="evenodd" d="M117.984 56.6304C118.067 57.0184 117.87 57.1304 117.554 57.0754C114.059 55.3254 106.154 51.5394 98.2085 47.5834C91.4755 44.2084 45.7685 22.5394 42.6555 20.9944L37.1365 18.1324C36.3265 17.7594 35.5835 17.2854 34.8475 16.8614C33.1381 15.8762 31.6171 14.5953 30.3555 13.0784C29.4103 11.7598 28.6374 10.3258 28.0555 8.81139C27.1242 6.1139 26.7291 3.26042 26.8925 0.41139C26.8889 0.340311 26.9059 0.269708 26.9413 0.208005C26.9768 0.146302 27.0293 0.0961036 27.0925 0.0633901C27.1851 0.0206393 27.2861 -0.001002 27.3881 3.56248e-05C27.4902 0.00107325 27.5907 0.0247606 27.6825 0.0693868L33.4205 3.57539L36.4875 5.45639L53.3165 15.7264C76.5505 30.3804 109.416 51.2604 117.982 56.6334" fill="#009DC3"/>
<path id="part9" fill-rule="evenodd" clip-rule="evenodd" d="M127.952 66.1194C128.016 66.1426 128.073 66.1828 128.115 66.2357C128.158 66.2886 128.185 66.3521 128.194 66.4194C128.143 66.5814 128.023 66.6564 127.732 66.6564C125.155 65.9414 119.716 64.4074 112.81 62.5464C97.0444 58.1964 37.7254 42.2284 36.7104 41.9944L36.4344 41.8774C33.1022 40.8813 30.0865 39.0355 27.6834 36.5214C27.0064 35.8089 26.3922 35.0394 25.8474 34.2214C23.8604 31.1854 23.3844 26.7214 23.2734 25.8924C23.2867 25.7481 23.3443 25.6115 23.4384 25.5014C23.5384 25.3964 23.6974 25.3584 24.0054 25.3964L33.7594 29.2364C56.8854 38.2364 118.005 62.0514 127.95 66.1214" fill="#009DC3"/>
<path id="part8" fill-rule="evenodd" clip-rule="evenodd" d="M134.899 72.4734C134.97 72.4945 135.032 72.5377 135.076 72.5968C135.12 72.6559 135.144 72.7276 135.144 72.8014C135.144 72.9694 134.993 73.0524 134.756 73.0524C125.706 72.4024 44.3365 66.6584 44.3365 66.6584C43.6252 66.6409 42.9192 66.5306 42.2365 66.3304C39.4411 65.4358 36.908 63.869 34.8592 61.7674C32.8105 59.6658 31.3086 57.0936 30.4855 54.2764C30.417 54.0867 30.417 53.8791 30.4855 53.6894C30.5494 53.6174 30.6287 53.5608 30.7175 53.5238C30.8063 53.4867 30.9024 53.4702 30.9985 53.4754C30.9985 53.4754 126.954 70.9514 134.898 72.4754" fill="#009DC3"/>
<path id="part7" fill-rule="evenodd" clip-rule="evenodd" d="M130.863 77.6844C131.017 77.7134 131.194 77.8754 131.137 78.0524C131.126 78.1179 131.094 78.1782 131.047 78.2246C130.999 78.2711 130.938 78.3015 130.872 78.3114C127.5 78.8674 65.6815 87.2994 65.2605 87.3274C64.9001 87.3947 64.5349 87.4339 64.1685 87.4444C63.8178 87.4527 63.4671 87.4336 63.1195 87.3874C59.8731 86.9929 56.8868 85.4136 54.7335 82.9524C53.5512 81.6047 52.5936 80.0755 51.8975 78.4234C51.8477 78.3628 51.8206 78.2868 51.8206 78.2084C51.8206 78.13 51.8477 78.054 51.8975 77.9934C52.0121 77.8803 52.1545 77.7996 52.3105 77.7594C52.3105 77.7594 72.8934 77.7134 86.0204 77.7254C95.8314 77.7594 106.276 77.7594 114.713 77.7594C122.107 77.7594 127.973 77.7594 130.864 77.6854" fill="#009DC3"/>
<path id="part6" fill-rule="evenodd" clip-rule="evenodd" d="M126.17 84.0444C126.307 84.0444 126.541 83.9934 126.598 84.1444C126.598 84.2494 126.798 84.4184 126.478 84.6144C124.468 85.9744 79.8535 104.382 79.3785 104.533C76.9495 105.333 74.2135 105.77 72.2065 102.389C71.3885 101.021 70.6725 99.8554 70.3395 99.3254C70.2345 99.1084 69.7395 98.5704 71.0265 98.2194C71.0265 98.2194 83.6055 94.8954 94.7795 92.0624C107.703 88.8354 122.317 85.1414 126.166 84.0464" fill="#009DC3"/>
<path id="part5" fill-rule="evenodd" clip-rule="evenodd" d="M121.16 92.7344C121.371 92.7774 121.468 92.9054 121.371 93.3044C117.004 96.9304 97.0455 113.554 86.3135 122.322L85.8975 122.613C82.7815 125.039 80.7205 125.569 80.3505 120.418C80.2565 119.161 80.1054 118.169 80.1054 118.169C79.9174 117.063 80.2565 117.063 80.6475 116.818C84.1105 114.7 90.8555 110.983 96.2115 107.776C105.734 102.052 116.888 95.2994 121.161 92.7344" fill="#009DC3"/>
<path id="part4" fill-rule="evenodd" clip-rule="evenodd" d="M106.479 114.885C106.659 114.902 106.787 115.067 106.696 115.385C102.386 120.393 86.4525 137.861 79.2665 145.585C78.5115 146.312 78.1265 145.998 78.3995 145.209C79.1887 143.231 79.8448 141.202 80.3635 139.135C80.7545 137.51 81.0875 136.19 81.9765 135.526C91.3285 127.65 100.287 119.84 106.214 114.991L106.479 114.885Z" fill="#009DC3"/>
<path id="part3" fill-rule="evenodd" clip-rule="evenodd" d="M71.0314 146.947C71.2114 146.97 71.3824 147.072 71.2904 147.397C69.3204 152.719 66.8294 156.672 61.9234 159.13C53.3174 163.403 48.8054 160.946 48.2184 160.664C48.1374 160.617 48.0701 160.55 48.0231 160.469C47.9761 160.388 47.951 160.296 47.9504 160.202C47.9592 160.104 48.0028 160.013 48.0735 159.944C48.1442 159.876 48.2372 159.835 48.3354 159.829C52.0584 158.683 63.3354 154.487 70.7774 147.013C70.8544 146.968 70.9423 146.945 71.0314 146.947Z" fill="#009DC3"/>
<path id="part2" fill-rule="evenodd" clip-rule="evenodd" d="M72.9695 136.643C73.1345 136.68 73.2635 136.808 73.2145 137.143C70.9433 140.033 68.2406 142.556 65.2015 144.623C61.2683 147.371 57.1163 149.791 52.7875 151.86C48.0725 154.078 43.9395 156.033 39.5955 157.148C35.4761 158.326 31.1803 158.761 26.9085 158.434C24.3822 158.245 21.962 157.34 19.9305 155.826C19.8785 155.78 19.839 155.721 19.8156 155.655C19.7922 155.59 19.7856 155.519 19.7965 155.45C19.8105 155.262 20.0355 155.105 20.2445 155.034C30.5608 153.354 40.7136 150.79 50.5905 147.369C59.8265 144.205 67.5475 140.531 72.9695 136.64" fill="#009DC3"/>
<path id="part1" fill-rule="evenodd" clip-rule="evenodd" d="M72.0805 131.41C66.3905 134.91 54.2335 140.073 43.6385 143.068C30.9855 146.64 20.8605 148.404 14.0675 147.401C8.10447 146.514 5.15146 143.718 4.23946 142.712C4.09946 142.612 3.92847 142.478 4.03147 142.293C4.04249 142.179 4.09391 142.073 4.17643 141.994C4.25895 141.914 4.36714 141.867 4.48147 141.86L6.76147 141.692C11.8385 141.319 20.8615 141.113 31.4065 139.554C43.6005 137.818 63.1865 134.343 71.8945 130.837C72.0945 130.874 72.2105 131.037 72.0795 131.41" fill="#009DC3"/>
</g>
<defs>
<filter id="filter0_d_2:2" x="0" y="0" width="140" height="170" filterUnits="userSpaceOnUse" color-interpolation-filters="sRGB">
<feFlood flood-opacity="0" result="BackgroundImageFix"/>
<feColorMatrix in="SourceAlpha" type="matrix" values="0 0 0 0 0 0 0 0 0 0 0 0 0 0 0 0 0 0 127 0" result="hardAlpha"/>
<feOffset dy="4"/>
<feGaussianBlur stdDeviation="2"/>
<feComposite in2="hardAlpha" operator="out"/>
<feColorMatrix type="matrix" values="0 0 0 0 0 0 0 0 0 0 0 0 0 0 0 0 0 0 0.25 0"/>
<feBlend mode="normal" in2="BackgroundImageFix" result="effect1_dropShadow_2:2"/>
<feBlend mode="normal" in="SourceGraphic" in2="effect1_dropShadow_2:2" result="shape"/>
</filter>
</defs>

</svg>
