<svg version="1.1" id="Capa_1" xmlns="http://www.w3.org/2000/svg" xmlns:xlink="http://www.w3.org/1999/xlink" x="0px" y="0px" viewBox="0 0 1080 1080" style="enable-background:new 0 0 1080 1080;" xml:space="preserve">
  <g fill="#ffffff">
    <path class="st0" d="M179.9,1020.13h720.2c31.82-0.03,62.33-12.69,84.83-35.2c22.51-22.5,35.17-53.01,35.2-84.83V275.93
                                    		c-0.03-31.82-12.69-62.33-35.2-84.84c-22.5-22.5-53.01-35.16-84.83-35.2h-48.01v-24c0-25.73-13.73-49.51-36.01-62.37
                                    		c-22.29-12.86-49.74-12.86-72.02,0c-22.29,12.87-36.01,36.65-36.01,62.37v24h-96.03v-24c0-25.73-13.73-49.51-36.01-62.37
                                    		c-22.28-12.86-49.74-12.86-72.02,0c-22.28,12.87-36.01,36.65-36.01,62.37v24h-96.03v-24c0-25.73-13.72-49.51-36.01-62.37
                                    		c-22.28-12.86-49.73-12.86-72.02,0c-22.28,12.87-36.01,36.65-36.01,62.37v24H179.9c-31.82,0.04-62.33,12.7-84.83,35.2
                                    		c-22.51,22.51-35.17,53.02-35.2,84.84V900.1c0.03,31.82,12.69,62.33,35.2,84.83C117.57,1007.44,148.08,1020.1,179.9,1020.13z
                                    		 M756.06,131.89c0-13.26,10.75-24.01,24.01-24.01c13.25,0,24,10.75,24,24.01v96.03v-0.01c0,13.26-10.75,24.01-24,24.01
                                    		c-13.26,0-24.01-10.75-24.01-24.01V131.89z M515.99,131.89c0-13.26,10.75-24.01,24.01-24.01s24.01,10.75,24.01,24.01v96.03v-0.01
                                    		c0,13.26-10.75,24.01-24.01,24.01s-24.01-10.75-24.01-24.01V131.89z M275.93,131.89c0-13.26,10.75-24.01,24-24.01
                                    		c13.26,0,24.01,10.75,24.01,24.01v96.03v-0.01c0,13.26-10.75,24.01-24.01,24.01c-13.25,0-24-10.75-24-24.01V131.89z M107.88,275.93
                                    		c0-19.11,7.59-37.43,21.09-50.93c13.51-13.5,31.83-21.09,50.93-21.09h48.01v24.01v-0.01c0,25.73,13.73,49.51,36.01,62.37
                                    		c22.29,12.86,49.74,12.86,72.02,0c22.29-12.87,36.01-36.65,36.01-62.37v-24h96.03v24.01v-0.01c0,25.73,13.73,49.51,36.01,62.37
                                    		c22.28,12.86,49.74,12.86,72.02,0c22.28-12.87,36.01-36.65,36.01-62.37v-24h96.03v24.01v-0.01c0,25.73,13.72,49.51,36.01,62.37
                                    		c22.28,12.86,49.73,12.86,72.02,0c22.28-12.87,36.01-36.65,36.01-62.37v-24h48.01c19.1,0,37.42,7.59,50.93,21.09
                                    		c13.5,13.5,21.09,31.82,21.09,50.93V900.1c0,19.1-7.59,37.42-21.09,50.93c-13.51,13.5-31.83,21.09-50.93,21.09H179.9
                                    		c-19.1,0-37.42-7.59-50.93-21.09c-13.5-13.51-21.09-31.83-21.09-50.93V275.93z" />
    <path class="st0" d="M155.89,419.97h768.23c13.25,0,24-10.75,24-24.01s-10.75-24.01-24-24.01H155.89c-13.25,0-24,10.75-24,24.01
                                    		S142.63,419.97,155.89,419.97L155.89,419.97z" />
    <path class="st0" d="M588.01,696.04c0,26.52-21.49,48.02-48.01,48.02s-48.01-21.5-48.01-48.02s21.49-48.01,48.01-48.01
                                    		S588.01,669.52,588.01,696.04" />
    <path class="st0" d="M347.95,696.04c0,26.52-21.5,48.02-48.02,48.02s-48.01-21.5-48.01-48.02s21.49-48.01,48.01-48.01
                                    		S347.95,669.52,347.95,696.04" />
    <path class="st0" d="M828.08,696.04c0,26.52-21.49,48.02-48.01,48.02s-48.02-21.5-48.02-48.02s21.5-48.01,48.02-48.01
                                    		S828.08,669.52,828.08,696.04" />
    <path class="st0" d="M588.01,528c0,26.52-21.49,48.01-48.01,48.01s-48.01-21.49-48.01-48.01s21.49-48.02,48.01-48.02
                                    		S588.01,501.49,588.01,528" />
    <path class="st0" d="M347.95,528c0,26.52-21.5,48.01-48.02,48.01s-48.01-21.49-48.01-48.01s21.49-48.02,48.01-48.02
                                    		S347.95,501.49,347.95,528" />
    <path class="st0" d="M828.08,528c0,26.52-21.49,48.01-48.01,48.01s-48.02-21.49-48.02-48.01s21.5-48.02,48.02-48.02
                                    		S828.08,501.49,828.08,528" />
    <path class="st0" d="M347.95,864.09c0,26.52-21.5,48.01-48.02,48.01s-48.01-21.49-48.01-48.01s21.49-48.01,48.01-48.01
                                    		S347.95,837.57,347.95,864.09" />
    <path class="st0" d="M828.08,864.09c0,26.52-21.49,48.01-48.01,48.01s-48.02-21.49-48.02-48.01s21.5-48.01,48.02-48.01
                                    		S828.08,837.57,828.08,864.09" />
    <path class="st0" d="M588.01,864.09c0,26.52-21.49,48.01-48.01,48.01s-48.01-21.49-48.01-48.01s21.49-48.01,48.01-48.01
                                    		S588.01,837.57,588.01,864.09" />
  </g>
</svg>